<?xml version="1.0" standalone="no"?>
<!DOCTYPE svg PUBLIC "-//W3C//DTD SVG 20010904//EN"
 "http://www.w3.org/TR/2001/REC-SVG-20010904/DTD/svg10.dtd">
<svg version="1.0" xmlns="http://www.w3.org/2000/svg"
 width="700.000000pt" height="700.000000pt" viewBox="0 0 700.000000 700.000000"
 preserveAspectRatio="xMidYMid meet">
<metadata>
Created by potrace 1.14, written by Peter Selinger 2001-2017
</metadata>
<g transform="translate(0.000000,700.000000) scale(0.100000,-0.100000)"
fill="#000000" stroke="none">
<path d="M3410 6627 c-3 -3 -34 -7 -70 -10 -446 -38 -882 -310 -1127 -702 -27
-43 -105 -197 -115 -227 -3 -7 -27 -5 -73 5 -39 9 -97 19 -130 24 -74 10 -342
10 -412 0 -607 -85 -955 -493 -937 -1097 3 -108 14 -200 30 -252 3 -9 7 -25 9
-35 29 -133 144 -330 261 -447 182 -181 410 -286 717 -330 42 -7 47 -10 48
-34 1 -15 2 -38 4 -52 1 -14 5 -59 9 -100 4 -41 9 -93 11 -115 6 -52 13 -127
20 -195 3 -30 7 -75 10 -100 2 -25 7 -76 10 -115 3 -38 8 -86 10 -105 4 -33 9
-84 20 -210 3 -30 8 -77 10 -105 3 -27 8 -77 10 -110 3 -33 7 -76 10 -95 2
-19 7 -64 10 -100 3 -36 8 -81 10 -100 2 -19 7 -71 10 -115 4 -44 8 -91 10
-105 2 -14 7 -59 11 -100 3 -41 8 -86 9 -100 1 -14 6 -61 9 -105 4 -44 9 -93
11 -110 2 -16 6 -61 10 -100 3 -38 8 -83 10 -100 2 -16 7 -68 10 -114 9 -106
9 -109 19 -118 4 -4 121 -8 259 -8 l252 -1 14 -29 c56 -120 155 -210 268 -245
103 -32 275 -24 398 19 32 11 33 12 -39 -34 -17 -11 -41 -40 -53 -64 -52 -103
23 -221 142 -221 69 0 199 82 314 197 l83 84 55 -61 c102 -113 266 -220 337
-220 99 0 168 75 160 174 -5 53 -42 98 -117 140 -34 20 -58 36 -53 36 4 0 45
-11 90 -24 154 -46 285 -51 395 -15 97 32 186 110 228 199 16 32 35 60 43 62
8 2 124 3 257 3 l242 -1 5 25 c3 14 8 62 11 106 4 44 8 96 10 115 2 19 6 71
10 115 3 44 7 94 9 110 2 17 6 68 10 115 4 47 9 101 11 120 2 19 7 70 10 113
3 43 8 95 10 115 2 20 6 72 10 115 3 43 8 95 10 115 2 20 6 73 9 117 4 44 9
98 11 120 2 22 7 69 10 105 3 36 7 85 9 110 5 50 18 209 21 255 10 161 -199
230 -288 95 -18 -28 -23 -53 -32 -165 -3 -44 -8 -96 -10 -115 -2 -19 -7 -75
-11 -125 -3 -49 -7 -99 -9 -110 -1 -11 -3 -34 -4 -51 l-1 -31 -330 0 c-373 1
-341 -8 -321 82 5 22 12 58 15 80 6 35 69 399 81 465 35 183 58 334 58 372 1
147 -198 207 -280 85 -19 -27 -26 -57 -48 -182 -1 -11 -6 -38 -10 -60 -15 -82
-14 -74 -30 -170 -3 -16 -14 -82 -26 -145 -11 -63 -22 -124 -23 -135 -2 -11
-7 -36 -10 -55 -4 -19 -9 -46 -10 -60 -2 -14 -8 -52 -14 -85 -6 -33 -14 -76
-17 -95 -3 -19 -8 -49 -11 -66 l-6 -30 -148 0 c-82 1 -152 4 -156 9 -4 4 -8
281 -8 615 -1 589 -2 608 -21 640 -51 84 -167 102 -241 36 -50 -45 -49 -27
-50 -684 l0 -615 -157 -1 c-86 0 -157 2 -157 5 0 4 -16 96 -35 206 -19 110
-51 290 -70 400 -39 227 -44 250 -50 285 -3 14 -7 43 -11 65 -11 79 -25 115
-56 144 -107 100 -281 13 -262 -131 4 -31 10 -67 20 -128 3 -14 9 -50 14 -80
16 -91 20 -114 25 -140 11 -58 15 -77 20 -115 3 -22 7 -47 10 -55 2 -8 6 -31
9 -50 2 -19 11 -75 20 -125 9 -49 18 -103 21 -120 3 -16 10 -52 15 -78 19 -92
53 -83 -325 -83 l-335 0 -1 25 c-1 14 -3 35 -4 46 -2 11 -6 48 -9 83 -3 34 -8
86 -11 115 -7 71 -12 129 -20 212 -3 39 -8 86 -10 105 -2 19 -7 64 -10 100 -3
36 -8 81 -9 100 -2 19 -7 67 -10 105 -4 39 -9 88 -11 110 -2 22 -7 67 -10 100
-3 33 -8 79 -11 102 -5 48 -4 49 54 58 61 9 215 61 286 97 139 70 263 173 344
287 41 56 45 69 45 117 -1 149 -181 210 -277 93 -15 -19 -43 -53 -63 -77 -75
-90 -245 -181 -388 -208 -11 -2 -42 -8 -68 -13 -50 -9 -258 -7 -312 3 -210 41
-349 110 -475 235 -150 149 -217 331 -212 576 9 391 212 630 602 710 86 18
291 24 380 13 79 -11 205 -39 215 -49 5 -5 14 -9 21 -9 6 0 64 -29 128 -64 64
-35 116 -63 116 -61 0 1 4 24 9 51 5 27 12 74 16 104 31 266 220 555 473 723
157 104 364 183 535 203 89 10 289 12 360 3 269 -33 514 -165 680 -368 158
-192 229 -356 281 -645 3 -16 10 -54 17 -84 l11 -54 41 39 c23 22 71 68 107
102 114 109 225 146 440 145 157 0 195 -5 310 -40 318 -97 503 -316 536 -637
43 -397 -136 -671 -519 -797 -241 -79 -560 -67 -761 30 -77 37 -125 79 -166
143 -37 59 -82 87 -138 87 -87 0 -140 -49 -156 -145 -7 -42 38 -136 99 -203
111 -123 277 -208 493 -252 99 -20 91 -2 78 -155 -13 -159 -16 -189 -21 -230
-11 -105 61 -190 160 -189 49 1 99 30 128 74 20 32 24 57 43 285 3 44 7 89 9
100 1 11 3 36 4 56 l1 37 66 7 c97 10 277 58 373 100 151 65 245 127 355 238
135 138 223 312 257 512 18 107 15 391 -5 423 -2 4 -7 23 -10 42 -3 19 -15 67
-27 105 -135 438 -571 725 -1103 726 -137 0 -304 -24 -388 -56 -11 -4 -18 -2
-18 4 0 18 -69 160 -118 241 -66 110 -133 194 -236 295 -196 193 -440 317
-713 364 -97 16 -400 29 -413 18z m1505 -4694 c-3 -38 -8 -92 -10 -120 -3 -29
-7 -77 -10 -105 -2 -29 -7 -84 -10 -123 -3 -38 -8 -86 -10 -105 -3 -19 -8 -75
-11 -125 -3 -49 -7 -92 -9 -93 -2 -2 -54 -4 -115 -5 l-111 0 -24 41 c-42 74
-79 115 -137 153 -112 72 -250 89 -444 55 -80 -14 -261 -83 -391 -147 l-142
-71 -28 20 c-42 29 -247 126 -333 156 -225 79 -426 84 -562 15 -60 -31 -132
-102 -165 -164 -15 -30 -35 -55 -43 -56 -44 -2 -212 -1 -215 2 -2 2 -6 36 -10
74 -3 39 -8 86 -10 105 -2 19 -7 64 -10 100 -3 36 -8 85 -10 110 -3 25 -7 72
-10 105 -9 95 -15 157 -21 203 l-6 42 1427 0 1427 0 -7 -67z m-1978 -739 c55
-13 212 -71 251 -93 17 -10 -122 -79 -219 -109 -179 -55 -272 -33 -300 71 -12
46 0 105 27 127 36 31 125 32 241 4z m1341 5 c61 -21 80 -126 34 -188 -39 -52
-157 -51 -310 3 -90 31 -182 75 -182 85 0 15 189 83 295 105 41 8 133 6 163
-5z"/>
<path d="M4199 4366 c-20 -7 -49 -22 -65 -33 -79 -56 -243 -122 -365 -147
-119 -24 -158 -28 -269 -28 -178 0 -345 31 -498 93 -84 33 -120 36 -168 13
-91 -43 -117 -169 -51 -243 55 -61 318 -144 527 -167 115 -13 349 -7 455 11
239 41 552 178 613 269 83 122 -40 281 -179 232z"/>
</g>
</svg>
