<svg width="40" height="40" viewBox="0 0 40 40" fill="none" xmlns="http://www.w3.org/2000/svg">
<path d="M14.2857 16.7097C13.4242 18.0533 11.7508 18.7736 10 18.8265M26 16.7097C26.5112 17.831 28.1735 18.4943 30 18.5169M16.5714 16.4355C17.9048 17.0753 21.3143 17.8613 24.2857 15.8871M10 18.8265C7.1058 18.914 4 17.178 4 13.4194C4 7.3871 10.6526 7.70007 12.5714 8.75809C12.8674 6.85902 15.1494 3.02547 20.2857 3.00011C25.0857 2.97641 27.0476 6.83877 27.4286 8.75809C29.003 7.27235 36 7.3871 36 13.4194C36 17.0735 32.8063 18.5516 30 18.5169M10 18.8265L10.8496 27.6774M14.2857 33.7097H11.4286L10.8496 27.6774M14.2857 33.7097C14.5714 30.9677 18.0952 32.4301 20 33.7097M14.2857 33.7097C14.7429 36.7806 18.2857 34.9892 20 33.7097M30 18.5169L29.7143 21.6452M29.4286 23.8387L29.0952 27.6774M25.7143 33.7097H28.5714L29.0952 27.6774M25.7143 33.7097C25.4286 30.9677 21.7143 32.5215 20 33.7097M25.7143 33.7097C25.4286 36.7258 21.7143 34.8978 20 33.7097M10.8496 27.6774H16.5714M29.0952 27.6774H23.4286M15.4286 21.0968L16.5714 27.6774M16.5714 27.6774H20M20 20V27.6774M20 27.6774H23.4286M24.5714 21.0968L23.4286 27.6774M20 33.7097C20 34.4409 19.5428 36.1226 17.7143 37M20 33.7097C20 34.4409 20.4571 36.1226 22.2857 37" stroke="#43A047" stroke-width="1.78947" stroke-linecap="round"/>
</svg>
